<svg xmlns="http://www.w3.org/2000/svg" version="1.1" xmlns:xlink="http://www.w3.org/1999/xlink" xmlns:svgjs="http://svgjs.dev/svgjs" width="1000" height="1000" viewBox="0 0 1000 1000"><rect width="1000" height="1000" fill="#ffffff"></rect><g transform="matrix(0.7,0,0,0.7,149.57575757575768,390.8487547681415)"><svg viewBox="0 0 396 124" data-background-color="#ffffff" preserveAspectRatio="xMidYMid meet" height="313" width="1000" xmlns="http://www.w3.org/2000/svg" xmlns:xlink="http://www.w3.org/1999/xlink"><g id="tight-bounds" transform="matrix(1,0,0,1,0.23999999999992383,-0.22567590711793173)"><svg viewBox="0 0 395.5199999999999 124.45135181423586" height="124.45135181423586" width="395.5199999999999"><g><svg viewBox="0 0 616.6520028356992 194.03108654899572" height="124.45135181423586" width="395.5199999999999"><g><rect width="8.054155239886452" height="194.03108654899572" x="191.99367157516767" y="0" fill="#dedede" opacity="1" stroke-width="0" stroke="transparent" fill-opacity="1" class="rect-r$-0" data-fill-palette-color="primary" rx="1%" id="r$-0" data-palette-color="#dedede"></rect></g><g transform="matrix(1,0,0,1,221.1320028356993,0.48266439440047293)"><svg viewBox="0 0 395.52000000000004 193.06575776019477" height="193.06575776019477" width="395.52000000000004"><g id="textblocktransform"><svg viewBox="0 0 395.52000000000004 193.06575776019477" height="193.06575776019477" width="395.52000000000004" id="textblock"><g><svg viewBox="0 0 395.52000000000004 193.06575776019477" height="193.06575776019477" width="395.52000000000004"><g transform="matrix(1,0,0,1,0,0)"><svg width="395.52000000000004" viewBox="2.3000000000000007 -36.49999999999999 165.14999999999998 77.14999999999999" height="193.06575776019477" data-palette-color="#dedede"><svg></svg><svg></svg><g class="wordmark-text-0" data-fill-palette-color="primary" id="text-0"><path d="M30.45-27.35v0c0 1.267-0.29 2.45-0.87 3.55-0.587 1.1-1.38 2.017-2.38 2.75-1 0.733-2.15 1.183-3.45 1.35v0 0.2c2.6 0.533 4.65 1.633 6.15 3.3 1.5 1.667 2.25 3.717 2.25 6.15v0c0 1.867-0.49 3.59-1.47 5.17-0.987 1.587-2.23 2.763-3.73 3.53v0c-0.933 0.467-2.083 0.807-3.45 1.02-1.367 0.22-3.283 0.33-5.75 0.33v0h-15.45v-2.4l4.2-1.05v-29.1l-4.2-1.05v-2.4h17.3c3.5 0 6.2 0.85 8.1 2.55v0c0.867 0.8 1.543 1.733 2.03 2.8 0.48 1.067 0.72 2.167 0.72 3.3zM17.9-17.2v0h-5.9v13.95h5c1.533 0 2.767-0.083 3.7-0.25 0.933-0.167 1.717-0.433 2.35-0.8v0c0.9-0.5 1.633-1.277 2.2-2.33 0.567-1.047 0.85-2.303 0.85-3.77v0c0-1.233-0.217-2.3-0.65-3.2-0.433-0.9-0.983-1.617-1.65-2.15v0c-0.6-0.5-1.367-0.867-2.3-1.1-0.933-0.233-2.133-0.35-3.6-0.35zM17.95-32.85h-5.95v12.5h5.75c2.333 0 4.05-0.583 5.15-1.75v0c0.5-0.533 0.933-1.193 1.3-1.98 0.367-0.78 0.55-1.67 0.55-2.67v0c0-1-0.183-1.9-0.55-2.7-0.367-0.8-0.8-1.433-1.3-1.9v0c-1-1-2.65-1.5-4.95-1.5zM70.3-18.4v0c0 2.867-0.433 5.573-1.3 8.12-0.867 2.553-2.1 4.697-3.7 6.43v0c-1.4 1.467-3.077 2.557-5.03 3.27-1.947 0.72-4.22 1.08-6.82 1.08v0c-2.6 0-4.883-0.35-6.85-1.05-1.967-0.7-3.6-1.75-4.9-3.15v0c-1.5-1.567-2.677-3.56-3.53-5.98-0.847-2.413-1.27-5.053-1.27-7.92v0c0-2.9 0.443-5.627 1.33-8.18 0.88-2.547 2.103-4.67 3.67-6.37v0c1.4-1.5 3.043-2.6 4.93-3.3 1.88-0.7 4.137-1.05 6.77-1.05v0c2.567 0 4.827 0.34 6.78 1.02 1.947 0.687 3.637 1.747 5.07 3.18v0c1.6 1.633 2.81 3.673 3.63 6.12 0.813 2.453 1.22 5.047 1.22 7.78zM43.15-18.6v0c0 2.733 0.233 5.15 0.7 7.25 0.467 2.1 1.133 3.817 2 5.15v0c0.833 1.233 1.89 2.157 3.17 2.77 1.287 0.62 2.863 0.93 4.73 0.93v0c3.4 0 5.917-1.1 7.55-3.3v0c0.9-1.2 1.583-2.8 2.05-4.8 0.467-2 0.7-4.367 0.7-7.1v0c0-2.733-0.24-5.127-0.72-7.18-0.487-2.047-1.163-3.703-2.03-4.97v0c-0.867-1.267-1.96-2.2-3.28-2.8-1.313-0.6-2.853-0.9-4.62-0.9v0c-1.7 0-3.167 0.283-4.4 0.85-1.233 0.567-2.267 1.383-3.1 2.45v0c-1.833 2.433-2.75 6.317-2.75 11.65zM108.65-18.4v0c0 2.867-0.433 5.573-1.3 8.12-0.867 2.553-2.1 4.697-3.7 6.43v0c-1.4 1.467-3.073 2.557-5.02 3.27-1.953 0.72-4.23 1.08-6.83 1.08v0c-2.6 0-4.883-0.35-6.85-1.05-1.967-0.7-3.6-1.75-4.9-3.15v0c-1.5-1.567-2.673-3.56-3.52-5.98-0.853-2.413-1.28-5.053-1.28-7.92v0c0-2.9 0.443-5.627 1.33-8.18 0.88-2.547 2.103-4.67 3.67-6.37v0c1.4-1.5 3.04-2.6 4.92-3.3 1.887-0.7 4.147-1.05 6.78-1.05v0c2.567 0 4.823 0.34 6.77 1.02 1.953 0.687 3.647 1.747 5.08 3.18v0c1.6 1.633 2.81 3.673 3.63 6.12 0.813 2.453 1.22 5.047 1.22 7.78zM81.5-18.6v0c0 2.733 0.233 5.15 0.7 7.25 0.467 2.1 1.133 3.817 2 5.15v0c0.833 1.233 1.893 2.157 3.18 2.77 1.28 0.62 2.853 0.93 4.72 0.93v0c3.4 0 5.917-1.1 7.55-3.3v0c0.9-1.2 1.583-2.8 2.05-4.8 0.467-2 0.7-4.367 0.7-7.1v0c0-2.733-0.243-5.127-0.73-7.18-0.48-2.047-1.153-3.703-2.02-4.97v0c-0.867-1.267-1.957-2.2-3.27-2.8-1.32-0.6-2.863-0.9-4.63-0.9v0c-1.7 0-3.167 0.283-4.4 0.85-1.233 0.567-2.267 1.383-3.1 2.45v0c-1.833 2.433-2.75 6.317-2.75 11.65zM127-33.6l-4.2 1.05v13.75l13.25-13.75-4.55-1.05v-2.4h13.65v2.4l-4.4 1.05-11.45 11.35 14.75 17.85 4.2 0.95v2.4h-14.45v-2.4l3.3-1-11.45-14.15-2.85 2.75v11.35l4.2 1.05v2.4h-14.4v-2.4l4.7-1.05v-29.1l-4.7-1.05v-2.4h14.4z" fill="#dedede" fill-rule="nonzero" stroke="none" stroke-width="1" stroke-linecap="butt" stroke-linejoin="miter" stroke-miterlimit="10" stroke-dasharray="" stroke-dashoffset="0" font-family="none" font-weight="none" font-size="none" text-anchor="none" style="mix-blend-mode: normal" data-fill-palette-color="primary" opacity="1"></path><path transform="translate(0,40.1)" d="M16.05 0.55v0c-1.933 0-3.657-0.293-5.17-0.88-1.52-0.58-2.813-1.437-3.88-2.57v0l-0.55 2.9h-3.3v-11.6h3.55c0.2 3.233 1.01 5.567 2.43 7 1.413 1.433 3.453 2.15 6.12 2.15v0c2.233 0 3.933-0.443 5.1-1.33 1.167-0.88 1.75-2.187 1.75-3.92v0c0-1.433-0.357-2.617-1.07-3.55-0.72-0.933-1.753-1.767-3.1-2.5-1.353-0.733-2.963-1.467-4.83-2.2v0c-2.067-0.867-3.833-1.733-5.3-2.6-1.467-0.867-2.583-1.917-3.35-3.15-0.767-1.233-1.15-2.817-1.15-4.75v0c0-3.2 0.993-5.683 2.98-7.45 1.98-1.767 4.637-2.65 7.97-2.65v0c3.3 0 5.983 0.933 8.05 2.8v0l0.4-2.25h3.3v11.6h-3.35c0-3.167-0.59-5.493-1.77-6.98-1.187-1.48-3.047-2.22-5.58-2.22v0c-4.3 0-6.45 1.983-6.45 5.95v0c0 1.133 0.217 2.05 0.65 2.75 0.433 0.7 1.177 1.35 2.23 1.95 1.047 0.6 2.537 1.317 4.47 2.15v0c2.767 1.2 4.993 2.35 6.68 3.45 1.68 1.1 2.897 2.283 3.65 3.55 0.747 1.267 1.12 2.767 1.12 4.5v0c0 2.1-0.5 3.883-1.5 5.35-1 1.467-2.367 2.583-4.1 3.35-1.733 0.767-3.733 1.15-6 1.15zM68.35-33.6l-4.2 1.05v29.1l4.2 1.05v2.4h-13.9v-2.4l4.2-1.05v-13.45h-16.45v13.45l4.2 1.05v2.4h-13.9v-2.4l4.2-1.05v-29.1l-4.2-1.05v-2.4h13.9v2.4l-4.2 1.05v12.5h16.45v-12.5l-4.2-1.05v-2.4h13.9zM94.6-25.1v13.2h-3.05l-0.9-4.95h-7.8v13.6h14.65l1.5-7.9h3.4v11.15h-29.75v-2.4l4.7-1.05v-29.1l-4.7-1.05v-2.4h28.65v10.6h-3.1l-1.55-7.45h-13.8v12.75h7.8l0.9-5zM122.5-33.6l-5.2 1.05v29.3h13.1l1.7-8.65h3.25v11.9h-28.25v-2.4l4.7-1.05v-29.1l-4.7-1.05v-2.4h15.4zM160.75-24.55v13.2h-3.05l-0.85-4.95h-7.85v12.7l5.85 0.95v2.65h-16.05v-2.4l4.7-1.2v-28.95l-4.7-1.05v-2.4h28.65v10.7h-3.2l-1.6-7.55h-13.65v13.3h7.85l0.85-5z" fill="#dedede" fill-rule="nonzero" stroke="none" stroke-width="1" stroke-linecap="butt" stroke-linejoin="miter" stroke-miterlimit="10" stroke-dasharray="" stroke-dashoffset="0" font-family="none" font-weight="none" font-size="none" text-anchor="none" style="mix-blend-mode: normal" data-fill-palette-color="primary" opacity="1"></path></g></svg></g></svg></g></svg></g></svg></g><g transform="matrix(1,0,0,1,0,0.48266439440047293)"><svg viewBox="0 0 170.9094955545225 193.06575776019477" height="193.06575776019477" width="170.9094955545225"><g><svg xmlns="http://www.w3.org/2000/svg" xmlns:xlink="http://www.w3.org/1999/xlink" version="1.1" x="0" y="0" viewBox="6.891 1.1219999999999999 85.824 96.95" enable-background="new 0 0 100 100" xml:space="preserve" height="193.06575776019477" width="170.9094955545225" class="icon-icon-0" data-fill-palette-color="accent" id="icon-0"></svg></g></svg></g></svg></g><defs></defs><mask id="313d32c0-b40d-4264-9d4c-7143aac7913e"><g id="SvgjsG1352"><svg viewBox="0 0 395.5199999999999 124.45135181423586" height="124.45135181423586" width="395.5199999999999"><g><svg viewBox="0 0 616.6520028356992 194.03108654899572" height="124.45135181423586" width="395.5199999999999"><g></g><g transform="matrix(1,0,0,1,221.1320028356993,0.48266439440047293)"><svg viewBox="0 0 395.52000000000004 193.06575776019477" height="193.06575776019477" width="395.52000000000004"><g id="SvgjsG1350"><svg viewBox="0 0 395.52000000000004 193.06575776019477" height="193.06575776019477" width="395.52000000000004" id="SvgjsSvg1349"><g><svg viewBox="0 0 395.52000000000004 193.06575776019477" height="193.06575776019477" width="395.52000000000004"><g transform="matrix(1,0,0,1,0,0)"><svg width="395.52000000000004" viewBox="2.3000000000000007 -36.49999999999999 165.14999999999998 77.14999999999999" height="193.06575776019477" data-palette-color="#dedede"><svg></svg><svg></svg><g class="wordmark-text-0" data-fill-palette-color="primary" id="SvgjsG1348"></g></svg></g></svg></g></svg></g></svg></g><g transform="matrix(1,0,0,1,0,0.48266439440047293)"><svg viewBox="0 0 170.9094955545225 193.06575776019477" height="193.06575776019477" width="170.9094955545225"><g><svg xmlns="http://www.w3.org/2000/svg" xmlns:xlink="http://www.w3.org/1999/xlink" version="1.1" x="0" y="0" viewBox="6.891 1.1219999999999999 85.824 96.95" enable-background="new 0 0 100 100" xml:space="preserve" height="193.06575776019477" width="170.9094955545225" class="icon-icon-0" data-fill-palette-color="accent" id="SvgjsSvg1347"><g fill="white"><path fill="white" d="M64.008 72.381c4.002-3.149 12.23-11.582 15.089-21.179-6.511-8.01-33.912-42.187-40.238-50.08C38.212 8.613 31.63 24.377 20.21 29.646c-5.247 2.56-10.477 4.156-12.467 4.721l39.077 47.32C51.235 80.263 59.958 75.56 64.008 72.381z"></path><g fill="white"><g fill="white"><path fill="white" d="M90.405 75.352c-6.5 3.781-13.381 7.281-20.674 9.929-8.632 3.134-19.05 6.681-22.386 7.664v5.127l43.046-15.479L90.405 75.352z"></path><polygon fill="white" points="6.891,35.865 6.891,50.088 45.703,97.945 45.736,82.902    "></polygon></g><path fill="white" d="M88.717 70.42c-5.018 3.936-11.386 7.921-18.278 11.363-6.521 3.266-20.879 7.668-23.093 8.339v1.144c3.686-1.09 13.036-3.898 21.237-7.013 9.104-3.457 22.12-11.628 22.12-11.628L88.717 70.42z"></path></g><path fill="white" d="M80.877 50.835l-0.114 0.403c-2.851 10.142-11.25 18.858-15.762 22.409-4.225 3.319-13.009 8.054-17.655 9.561v2.168c6.53-2.034 15.656-6.36 20.721-9.922 8.699-6.128 17.195-14.63 22.419-22.404l0.047 0.036C84.648 46.442 51.938 9.001 49.818 6.309c-0.719 1.357-1.368 2.265-2.422 2.887 10.832 13.508 28.598 35.647 33.217 41.314L80.877 50.835z"></path><path fill="white" d="M87.321 59.925c0 0-11.588 12.1-18.328 16.846-5.696 4.008-14.5 7.942-21.647 10.168v1.498c0.692-0.212 1.838-0.566 3.268-1.021 5.266-1.677 14.41-4.722 19.106-7.072 9.305-4.648 17.623-10.274 22.834-15.386 0.054-0.053 0.106-0.106 0.161-0.16L87.321 59.925z"></path></g></svg></g></svg></g></svg></g><defs><mask></mask></defs></svg></g></mask><linearGradient x1="0" x2="1" y1="0.5" y2="0.5" id="2e5ae199-ab18-4a72-93da-b36c7c8a8b86"><stop stop-color="#fff72e" offset="0"></stop><stop stop-color="#deae29" offset="1"></stop></linearGradient><rect width="395.52000000000004" height="124.45135181423586" fill="url(#2e5ae199-ab18-4a72-93da-b36c7c8a8b86)" mask="url(#313d32c0-b40d-4264-9d4c-7143aac7913e)" data-fill-palette-color="accent"></rect></svg><rect width="395.5199999999999" height="124.45135181423586" fill="none" stroke="none" visibility="hidden"></rect></g></svg></g></svg>